<?xml version="1.0" encoding="UTF-8"?>
<!DOCTYPE svg PUBLIC "-//W3C//DTD SVG 1.2 Tiny//EN" "http://www.w3.org/Graphics/SVG/1.2/DTD/svg12-tiny.dtd">
<svg
   xmlns="http://www.w3.org/2000/svg"
   version="1.2"
   baseProfile="tiny-ps"
   width="162.5"
   height="44"
   viewBox="0 0 162.5 44">
   <title> Alteon Partners </title>
  <defs
     id="defs1" />
  <g
     id="g1"
     transform="translate(0.5)">
    <path
       style="fill:#000000"
       d="M 161,22.505915 V 1.0118291 L 80.25,0.74991683 -0.5,0.48800455 80.75,0.24400227 162,0 v 22 c 0,12.1 -0.225,22 -0.5,22 -0.275,0 -0.5,-9.672338 -0.5,-21.494085 z M 5.2811782,34.75 C 6.1960688,34.0625 8.4808226,29.225 10.358409,24 c 1.877586,-5.225 4.041165,-9.626453 4.807952,-9.781006 0.944702,-0.190414 2.631799,3.097803 5.233166,10.199645 2.399859,6.551713 4.450329,10.643479 5.46974,10.915004 C 26.76617,35.572538 25.25,35.806514 22.5,35.85359 18.821311,35.916564 17.939415,35.682721 19.1628,34.968701 20.560088,34.153183 20.644839,33.51933 19.693562,30.99911 18.68434,28.325376 18.107714,28 14.378588,28 10.635314,28 10.086358,28.313516 9.1558473,30.982781 8.2970042,33.44646 8.410504,34.137299 9.8080222,34.952372 11.129003,35.722807 10.635836,35.94585 7.5588704,35.969591 4.1885989,35.995595 3.8586835,35.818942 5.2811782,34.75 Z M 18,26.678139 c 0,-0.177024 -0.752039,-2.528974 -1.671198,-5.226556 l -1.671197,-4.904695 -1.754639,3.976556 C 10.349455,26.310493 10.519478,27 14.5,27 16.425,27 18,26.855162 18,26.678139 Z m 17.75,8.65958 C 36.609649,34.990843 37,32.230994 37,26.5 c 0,-5.730994 -0.390351,-8.490843 -1.25,-8.837719 -0.6875,-0.277413 0.55,-0.504386 2.75,-0.504386 2.2,0 3.4375,0.226973 2.75,0.504386 C 40.388961,18.009717 40,20.785673 40,26.583333 V 35 h 2.928571 c 1.610715,0 3.635715,-0.707143 4.5,-1.571429 C 48.857143,32 49,32.045455 49,33.928571 c 0,1.912022 -0.557925,2.065354 -7.25,1.992482 -3.9875,-0.04342 -6.6875,-0.305921 -6,-0.583334 z m 28.5,-0.02705 C 65.738372,34.921722 66,33.619444 66,26.599869 v -8.253483 l -2.947037,0.432533 c -1.62087,0.237893 -3.16646,1.172456 -3.434645,2.076807 C 59.350134,21.760077 59.2138,21.375 59.315355,20 59.493483,17.588233 59.773523,17.491079 67.25,17.247239 c 7.468073,-0.243566 7.747128,-0.170811 7.671053,2 C 74.877632,20.486258 74.615132,20.9375 74.337719,20.25 74.060307,19.5625 72.520833,19 70.916667,19 H 68 v 7.45031 c 0,6.040569 0.331133,7.643177 1.75,8.469591 1.364738,0.794887 0.759327,1.000438 -2.75,0.933689 -2.475,-0.04708 -3.7125,-0.291388 -2.75,-0.542916 z m 21.5,0.02705 c 1.746909,-0.704893 1.746909,-16.959805 0,-17.702457 -0.6875,-0.292272 1.895348,-0.442272 5.739662,-0.333333 6.138114,0.17394 7.027927,0.44173 7.303756,2.198071 0.187714,1.195266 -0.0093,1.559261 -0.489662,0.904635 C 97.86169,19.802184 95.8125,19.042975 93.75,18.717505 L 90,18.125741 v 3.93713 C 90,25.559605 90.270321,26 92.416667,26 c 1.329166,0 2.64364,-0.5625 2.921052,-1.25 0.277413,-0.6875 0.504386,0.1 0.504386,1.75 0,1.65 -0.226973,2.4375 -0.504386,1.75 C 95.060307,27.5625 93.745833,27 92.416667,27 90.263889,27 90,27.436782 90,31 c 0,3.777778 0.166667,4 3,4 1.746538,0 3.908179,-0.908179 5.173609,-2.173609 1.716019,-1.716019 2.031801,-1.804062 1.5,-0.418212 C 99.303124,33.373647 99,34.576771 99,35.081787 c 0,0.505017 -3.2625,0.882687 -7.25,0.839266 -3.9875,-0.04342 -6.6875,-0.305921 -6,-0.583334 z m 26.71884,-1.610865 C 107.67286,29.601526 109.42655,18 114.84612,18 c 1.1913,0 1.10039,0.318627 -0.40499,1.419389 C 112.91536,20.53506 112.5,22.050154 112.5,26.5 c 0,4.449846 0.41536,5.96494 1.94113,7.080611 C 119.3944,37.202533 124,33.683788 124,26.277494 124,21.711889 121.45889,18 118.33333,18 c -0.91666,0 -1.39681,-0.269849 -1.067,-0.599665 0.32982,-0.329815 2.13852,-0.0918 4.01933,0.528927 3.80909,1.257112 5.7316,4.42642 5.68254,9.367791 -0.0747,7.519906 -8.75627,11.369798 -14.49936,6.429801 z M 137.25,34.919901 c 1.41203,-0.822432 1.75,-2.419498 1.75,-8.269591 0,-4.305797 -0.48735,-7.737657 -1.2,-8.45031 -0.93333,-0.933333 -0.65556,-1.194711 1.25,-1.1762 1.8879,0.01834 3.48243,1.541125 6.95,6.637287 l 4.5,6.613487 0.3046,-5.794528 c 0.20799,-3.95677 -0.10917,-6.056956 -1,-6.621974 -0.83166,-0.527481 -0.0358,-0.827446 2.1954,-0.827446 2.51944,0 3.09226,0.257928 2.04461,0.920643 -1.05702,0.668644 -1.40739,2.64893 -1.28003,7.234687 0.33053,11.901041 -0.14577,12.104713 -6.56485,2.807193 L 140.5,19.737546 l -0.29708,7.293115 c -0.21005,5.156808 0.0829,7.53413 1,8.115914 0.81925,0.519688 0.008,0.817238 -2.20292,0.807704 -2.85892,-0.01233 -3.17946,-0.201795 -1.75,-1.034378 z"
       id="path1" />
  </g>
</svg>
